<svg width="48" height="48" viewBox="0 0 48 48" fill="none" xmlns="http://www.w3.org/2000/svg">
<g clip-path="url(#clip0_531_2)">
<rect width="48" height="48" fill="#0A0A0A"/>
<path d="M23.9 41.98C21.66 41.98 19.708 41.564 18.044 40.732C16.412 39.868 15.148 38.668 14.252 37.132C13.388 35.564 12.956 33.724 12.956 31.612V16.348C12.956 14.236 13.388 12.412 14.252 10.876C15.148 9.308 16.412 8.108 18.044 7.276C19.708 6.412 21.66 5.98 23.9 5.98C26.172 5.98 28.124 6.412 29.756 7.276C31.388 8.108 32.636 9.308 33.5 10.876C34.396 12.412 34.844 14.22 34.844 16.3V31.612C34.844 33.724 34.396 35.564 33.5 37.132C32.636 38.668 31.388 39.868 29.756 40.732C28.124 41.564 26.172 41.98 23.9 41.98ZM23.9 36.7C25.532 36.7 26.764 36.268 27.596 35.404C28.428 34.508 28.844 33.244 28.844 31.612V16.348C28.844 14.684 28.428 13.42 27.596 12.556C26.764 11.692 25.532 11.26 23.9 11.26C22.268 11.26 21.036 11.692 20.204 12.556C19.372 13.42 18.956 14.684 18.956 16.348V31.612C18.956 33.244 19.372 34.508 20.204 35.404C21.068 36.268 22.3 36.7 23.9 36.7Z" fill="#7C3AFF"/>
</g>
<defs>
<clipPath id="clip0_531_2">
<rect width="48" height="48" fill="white"/>
</clipPath>
</defs>
</svg>
